# xmcd
#
# Track frame offsets: 
#        150
#        11473
#        24726
#        42911
#        53621
#        66853
#        78233
#        88448
#        98309
#        109660
#        120308
#        131346
#        144299
#        155198
#
# Disc length: 2199 seconds
#
# Revision: 3
# Processed by: cddbd v1.5.2PL0 Copyright (c) Steve Scherf et al.
# Submitted via: ExactAudioCopyFreeDBPlugin 1.0
#
DISCID=a908950e
DTITLE=JOHN LEE HOOKER - Boom Boom
DYEAR=1999
DGENRE=Blues
TTITLE0=Boom, Boom
TTITLE1=I Want To Hug You
TTITLE2=House Rent Boogie
TTITLE3=Wand Ad Blues
TTITLE4=I'm So Excited
TTITLE5=Hard Headed Woman
TTITLE6=I Wanna Walk
TTITLE7=Onions
TTITLE8=What Do You Say
TTITLE9=Keep Your Hands To Yourself
TTITLE10=Send Me Your Pillow
TTITLE11=She Shot Me Down
TTITLE12=I Want To Shout
TTITLE13=I'm Leaving (Baby)
EXTD=
EXTT0=
EXTT1=
EXTT2=
EXTT3=
EXTT4=
EXTT5=
EXTT6=
EXTT7=
EXTT8=
EXTT9=
EXTT10=
EXTT11=
EXTT12=
EXTT13=
PLAYORDER=
